# xmcd
# 
# Track frame offsets:
#     150
#     10255
#     20835
#     32602
#     44725
#     56927
#     68810
#     82782
#     97757
#     112182
#     124655
#     143952
#     155010
#     166827
#     177695
#     189625
#     203857
#     213612
#     225010
#     236617
# 
# Disc length: 3293
# 
# Revision: 4
# Processed by: cddbd v1.5.2PL0 Copyright (c) Steve Scherf et al.
# Submitted via: BonkEnc v1.0.8
# 
DISCID=190cdb14
DTITLE=Various Artist - Best Of Country Classics (Volume 1)
DYEAR=1996
DGENRE=Country
TTITLE0=Merle Haggard - Mama Tried
TTITLE1=Ferlin Husky - Wings Of A Dove
TTITLE2=George Jones - She Thinks I Still Care
TTITLE3=Glen Campbell - Galveston
TTITLE4=Hank Thompson - Wild Side Of Life
TTITLE5=Tennessee Ernie Ford - The Shotgun Boogie
TTITLE6=Sonny James - It's The Little Things
TTITLE7=Slim Whitman - Indian Love Call
TTITLE8=Billy Heaven - I Dream of a Hill
TTITLE9=Merle Haggard - Okie From Muskogee
TTITLE10=Bobby Gentry - Ode To Billie Joe
TTITLE11=Faron Young - Hello Walls
TTITLE12=Wanda Jackson - In The Middle Of A Heartache
TTITLE13=Ferlin Husky - Gone
TTITLE14=Tennessee Ernie Ford - Sixteen Tons
TTITLE15=Merle Haggard - Branded Man
TTITLE16=Louvin Brothers - I Don't Believe That You've Met My Baby
TTITLE17=Sonny James - Young Love
TTITLE18=Jean Shepard and Ferlin Husky - A Dear John Letter
TTITLE19=Faron Young - Live Fast, Love Hard, Die Young
EXTD=
EXTT0=Merle Haggard
EXTT1=Ferlin Husky
EXTT2=George Jones
EXTT3=Glen Campbell
EXTT4=Hank Thompson
EXTT5=Tennessee Ernie Ford
EXTT6=Sonny James
EXTT7=Slim Whitman
EXTT8=I Dreamed Of A Hill
EXTT9=Merle Haggard
EXTT10=Bobbie Gentry
EXTT11=Faron Young
EXTT12=Wanda Jackson
EXTT13=Ferlin Husky
EXTT14=Tennessee Ernie Ford
EXTT15=Merle Haggard
EXTT16=The Louvin Brothers
EXTT17=Sonny James
EXTT18=Jean Shepard and Ferlin Husky
EXTT19=Faron Young
PLAYORDER=
